<svg width="70" height="46" viewBox="0 0 70 46" fill="none" xmlns="http://www.w3.org/2000/svg">
<path d="M3.57213 0.976929H66.7933C68.3738 0.976929 69.667 2.15429 69.667 3.59329V42.8387C69.667 44.2777 68.3738 45.4551 66.7933 45.4551H3.57213C1.9916 45.4551 0.698441 44.2777 0.698441 42.8387V3.59329C0.698441 2.15429 1.9916 0.976929 3.57213 0.976929Z" fill="#8A8C8C"/>
<path fill-rule="evenodd" clip-rule="evenodd" d="M49.4509 18.0054H60.9536C61.4329 18.0054 61.9122 18.4417 61.9122 18.8781V21.4963C61.9122 22.0199 61.5288 22.369 60.9536 22.369H54.2437V23.2417H60.7619C61.337 23.2417 61.7205 23.5908 61.7205 24.1145V26.7326C61.7205 27.2563 61.337 27.6054 60.7619 27.6054H54.2437V28.4781H60.9536C61.5288 28.4781 61.9122 28.8272 61.9122 29.3508V31.969C61.9122 32.4926 61.5288 32.8417 60.9536 32.8417H49.4509C48.9716 32.8417 48.4923 32.4926 48.4923 32.0563C48.4923 32.4926 48.013 32.8417 47.5337 32.8417H43.6995C43.1244 32.8417 42.7409 32.4926 42.7409 31.969V26.9072L40.2487 32.3181C40.1528 32.6672 39.7694 32.8417 39.386 32.8417H36.4144C36.031 32.8417 35.7434 32.6672 35.5517 32.3181L33.1553 26.9945V31.969C33.1553 32.4926 32.7719 32.8417 32.1968 32.8417H24.5283C24.1448 32.8417 23.8573 32.6672 23.6655 32.3181L22.3236 29.3508H17.0515L15.6136 32.3181C15.5178 32.6672 15.1343 32.8417 14.7509 32.8417H10.6291C10.3415 32.8417 10.054 32.6672 9.86225 32.4054C9.67054 32.1435 9.67054 31.7945 9.76639 31.5326L16.3805 18.4417C16.5722 18.0926 16.8598 17.9181 17.2432 17.9181H22.3236C22.707 17.9181 22.9946 18.0926 23.1863 18.4417L27.4039 26.9945V18.7908C27.4039 18.2672 27.7874 17.9181 28.3625 17.9181H33.347C33.7304 17.9181 34.018 18.1799 34.2097 18.4417L38.044 25.5108L41.1114 18.529C41.2072 18.1799 41.5907 18.0054 41.9741 18.0054H47.5337C48.013 18.0054 48.4923 18.3545 48.4923 18.7908C48.4923 18.3545 48.9716 18.0054 49.4509 18.0054ZM19.7354 23.2417L18.8727 24.9872H20.5981L19.7354 23.2417Z" fill="#8A8C8C"/>
<path fill-rule="evenodd" clip-rule="evenodd" d="M57.2381 23.6086L60.1118 26.4212C60.2555 26.552 60.3273 26.6828 60.3273 26.879V28.4489C60.3273 28.6451 60.2555 28.7759 60.1118 28.9067C59.9681 29.0375 59.8245 29.1029 59.6089 29.1029H57.741C57.5973 29.1029 57.3818 29.0375 57.2381 28.9067L54.5081 26.2904L51.7781 28.9067C51.6344 29.0375 51.4908 29.1029 51.2752 29.1029H49.551C49.12 29.1029 48.8326 28.8413 48.8326 28.4489V18.6375C48.8326 18.245 49.12 17.9834 49.551 17.9834H51.4908C51.7063 17.9834 51.85 18.0488 51.9936 18.245L54.58 20.9268L57.0944 18.1796C57.2381 18.0488 57.4537 17.9834 57.6692 17.9834H59.6089C59.8245 17.9834 59.9681 18.0488 60.1118 18.1796C60.2555 18.3104 60.3273 18.4413 60.3273 18.6375V20.3381C60.3273 20.5344 60.2555 20.6652 60.1118 20.796L57.2381 23.6086ZM50.2694 21.9734V25.1784L51.9217 23.5432L50.2694 21.9734Z" fill="#8A8C8C"/>
<path d="M15.498 23.87H18.9464L17.2222 20.3379L15.498 23.87Z" fill="white"/>
<path d="M49.5508 26.8788L52.9274 23.6083L49.5508 20.3379V26.8788Z" fill="white"/>
<path fill-rule="evenodd" clip-rule="evenodd" d="M58.2438 23.6089L60.6865 25.9636C60.902 26.2252 61.0457 26.5523 61.0457 26.8793V28.4491C61.0457 28.7762 60.902 29.1032 60.6146 29.3649C60.3273 29.6265 59.9681 29.7573 59.6088 29.7573H57.8846C57.4536 29.7573 57.0944 29.6265 56.807 29.3649L54.5799 27.2064L52.3528 29.3649C52.0654 29.6265 51.6344 29.7573 51.2751 29.7573H49.5509C49.2636 29.7573 49.048 29.6919 48.8325 29.5611C48.617 29.6919 48.4015 29.7573 48.1141 29.7573H39.493C39.2056 29.7573 38.9901 29.6919 38.7746 29.5611C38.5591 29.6919 38.3435 29.7573 38.0562 29.7573H35.1825C34.3922 29.7573 33.7456 29.1686 33.7456 28.4491V28.1221L33.3146 29.1032C33.0272 29.5611 32.5243 29.8881 31.9496 29.8881H29.7225C29.1477 29.8881 28.6448 29.5611 28.4293 29.1032L27.9983 28.1221V28.58C27.9983 29.2995 27.3517 29.8881 26.5614 29.8881H20.814C20.1674 29.8881 19.6646 29.5611 19.449 29.0378L18.6588 27.2064H15.6414L14.7793 29.0378C14.5638 29.4957 14.0609 29.8227 13.4861 29.8227H10.3969C9.89401 29.8227 9.46296 29.6265 9.17559 29.234C8.96006 28.8416 8.88822 28.3837 9.10374 27.9913L14.0609 18.1799C14.2764 17.722 14.7793 17.395 15.354 17.395H19.1617C19.7364 17.395 20.2393 17.722 20.4548 18.1799L22.2509 21.7774V18.7032C22.2509 17.9837 22.8975 17.395 23.6877 17.395H27.3517C27.9264 17.395 28.4293 17.6566 28.6448 18.1145L30.8001 22.1045L32.5243 18.1799C32.7398 17.6566 33.3146 17.3296 33.8893 17.3296H38.0562C38.3435 17.3296 38.5591 17.395 38.7746 17.5258C38.9901 17.395 39.2056 17.3296 39.493 17.3296H48.1141C48.4015 17.3296 48.617 17.395 48.8325 17.5258C49.048 17.395 49.2636 17.3296 49.5509 17.3296H51.4907C51.9217 17.3296 52.2809 17.5258 52.5683 17.7875L54.5799 19.8805L56.5915 17.7875C56.8788 17.4604 57.238 17.3296 57.6691 17.3296H59.6088C59.9681 17.3296 60.3273 17.4604 60.6146 17.722C60.902 17.9837 61.0457 18.3107 61.0457 18.6378V20.3384C61.0457 20.6655 60.902 20.9925 60.6865 21.2541L58.2438 23.6089ZM35.1826 28.4492H38.0563V18.6379H33.8894L31.0157 25.2442L27.4236 18.6379H23.7597V27.7952L19.2336 18.6379H15.426L10.4688 28.4492H13.5581L14.7794 25.8329H19.6646L20.8141 28.4492H26.5615V21.3851L29.7226 28.4492H31.9497L35.1826 21.3197V28.4492ZM48.1139 20.6002H42.3665V22.5624H47.9702V24.5247H42.3665V26.487H48.1139V28.4492H39.4928V18.6379H48.1139V20.6002ZM54.5795 25.3096L57.8843 28.4492H59.6085V26.8794L56.2319 23.609L59.6085 20.3385V18.6379H57.6688L54.5795 21.9083L51.4903 18.6379H49.5506V28.4492H51.2748L54.5795 25.3096Z" fill="white"/>
<path opacity="0.05" d="M3.57213 45.4551H4.86529L69.667 4.77066V3.59329C69.667 2.15429 68.3738 0.976929 66.7933 0.976929H3.57213C1.9916 0.976929 0.698441 2.15429 0.698441 3.59329V42.8387C0.698441 44.2777 1.9916 45.4551 3.57213 45.4551Z" fill="white"/>
</svg>
