<svg width="22" height="33" viewBox="0 0 22 33" fill="none" xmlns="http://www.w3.org/2000/svg">
<path d="M11.1667 0.604797C5.28519 0.604797 0.5 5.38999 0.5 11.2715C0.5 13.0371 0.941437 14.7877 1.78062 16.3405L10.5834 32.261C10.7006 32.4733 10.9239 32.6048 11.1667 32.6048C11.4095 32.6048 11.6328 32.4733 11.75 32.261L20.556 16.3352C21.3919 14.7877 21.8334 13.037 21.8334 11.2714C21.8334 5.38999 17.0482 0.604797 11.1667 0.604797ZM11.1667 16.6048C8.22594 16.6048 5.83338 14.2122 5.83338 11.2715C5.83338 8.33074 8.22594 5.93817 11.1667 5.93817C14.1074 5.93817 16.5 8.33074 16.5 11.2715C16.5 14.2122 14.1074 16.6048 11.1667 16.6048Z" fill="#5465DA"/>
</svg>
