<svg xmlns="http://www.w3.org/2000/svg" viewBox="0 0 196.59 37.46"><defs><style>.cls-1{fill:#444;}</style></defs><title>Ресурс 1</title><g id="Слой_2" data-name="Слой 2"><g id="Слой_1-2" data-name="Слой 1"><path class="cls-1" d="M10.48,37.46c-3.48,0-6.07-.92-7.78-2.74S.12,29.92,0,25.9l6.88-1a12.26,12.26,0,0,0,.81,5,2.57,2.57,0,0,0,2.38,1.48c1.35,0,2-.88,2-2.65a6.55,6.55,0,0,0-1-3.64,14.83,14.83,0,0,0-3-3.29L5,19A16.68,16.68,0,0,1,1.3,14.84,10.69,10.69,0,0,1,0,9.53a9.11,9.11,0,0,1,2.7-7.06A10.81,10.81,0,0,1,10.25,0q5.17,0,7,3a14.4,14.4,0,0,1,2,7.33l-6.92.86a14.16,14.16,0,0,0-.54-4A1.74,1.74,0,0,0,10,5.89a1.83,1.83,0,0,0-1.62.9,3.53,3.53,0,0,0-.54,1.93,5.73,5.73,0,0,0,.81,3.11,15.86,15.86,0,0,0,2.7,2.87l3,2.66a19.15,19.15,0,0,1,4.18,4.85A11.93,11.93,0,0,1,20,28.29,9.21,9.21,0,0,1,18.8,33a8.47,8.47,0,0,1-3.33,3.28A10,10,0,0,1,10.48,37.46ZM23.91.49H36.14q4.81,0,7.2,2.75c1.58,1.8,2.38,4.4,2.38,7.82q0,5.85-2.79,8.14T35.2,21.45H32V36.92h-8ZM34.66,15.83c1.41,0,2.33-.38,2.78-1.13a7.28,7.28,0,0,0,.72-3.77,7.44,7.44,0,0,0-.67-3.6q-.68-1.17-2.88-1.17H32v9.67ZM60,37.46c-3.93,0-6.73-1-8.41-3s-2.52-5-2.52-9V11.92Q49.1,6,51.62,3T60,0Q66,0,68.49,3c1.7,2,2.56,5,2.56,8.91V25.45c0,4-.86,7-2.56,9S64,37.46,60,37.46Zm0-5.71a2.24,2.24,0,0,0,2.25-1.13,7.57,7.57,0,0,0,.54-3.14V9.94a7.44,7.44,0,0,0-.54-3.15A2.24,2.24,0,0,0,60,5.67a2.14,2.14,0,0,0-2.16,1.17,7.25,7.25,0,0,0-.54,3.1V27.48a8.18,8.18,0,0,0,.5,3.14A2.14,2.14,0,0,0,60,31.75ZM76,.49h5.66L89.08,18V.49h6.65V36.92H90.29L82.83,18V36.92H76Zm34.87,37c-3.47,0-6.07-.92-7.78-2.74s-2.57-4.8-2.69-8.82l6.88-1a12.26,12.26,0,0,0,.81,5,2.56,2.56,0,0,0,2.38,1.48c1.35,0,2-.88,2-2.65a6.55,6.55,0,0,0-1-3.64,14.59,14.59,0,0,0-3-3.29L105.29,19a16.63,16.63,0,0,1-3.64-4.18,10.69,10.69,0,0,1-1.26-5.31,9.11,9.11,0,0,1,2.7-7.06A10.79,10.79,0,0,1,110.6,0q5.18,0,7,3a14.4,14.4,0,0,1,2,7.33l-6.93.86a14.16,14.16,0,0,0-.54-4,1.73,1.73,0,0,0-1.84-1.26,1.83,1.83,0,0,0-1.62.9,3.53,3.53,0,0,0-.54,1.93,5.64,5.64,0,0,0,.81,3.11,15.86,15.86,0,0,0,2.7,2.87l3,2.66a19,19,0,0,1,4.18,4.85,11.94,11.94,0,0,1,1.49,6.08A9.22,9.22,0,0,1,119.14,33a8.51,8.51,0,0,1-3.32,3.28A10,10,0,0,1,110.82,37.46Zm23.87,0c-3.93,0-6.73-1-8.41-3s-2.52-5-2.52-9V11.92q0-5.94,2.52-8.91t8.41-3q5.92,0,8.45,3t2.56,8.91V25.45q0,5.94-2.56,9C141.46,36.45,138.64,37.46,134.69,37.46Zm0-5.71a2.24,2.24,0,0,0,2.25-1.13,7.74,7.74,0,0,0,.54-3.14V9.94a7.6,7.6,0,0,0-.54-3.15,2.24,2.24,0,0,0-2.25-1.12,2.14,2.14,0,0,0-2.16,1.17,7.25,7.25,0,0,0-.54,3.1V27.48a8.2,8.2,0,0,0,.49,3.14A2.15,2.15,0,0,0,134.69,31.75ZM150.6.49h10q6,0,9,2.12t3.06,7.51a14.7,14.7,0,0,1-.95,5.8,6.79,6.79,0,0,1-3.5,3.37l5,17.63H165L161,20.6h-2.3V36.92H150.6ZM160.9,16a4,4,0,0,0,3.37-1.26,6.29,6.29,0,0,0,1-3.86,6.19,6.19,0,0,0-.9-3.69,3.55,3.55,0,0,0-3.1-1.26h-2.61V16Zm26.16,21.5c-3.48,0-6.07-.92-7.78-2.74s-2.58-4.8-2.7-8.82l6.88-1a12.26,12.26,0,0,0,.81,5,2.58,2.58,0,0,0,2.38,1.48c1.35,0,2-.88,2-2.65a6.55,6.55,0,0,0-1-3.64,14.83,14.83,0,0,0-3-3.29L181.53,19a16.63,16.63,0,0,1-3.64-4.18,10.69,10.69,0,0,1-1.26-5.31,9.13,9.13,0,0,1,2.69-7.06A10.81,10.81,0,0,1,186.83,0q5.17,0,7,3a14.4,14.4,0,0,1,2,7.33L189,11.2a14.16,14.16,0,0,0-.54-4,1.74,1.74,0,0,0-1.84-1.26,1.83,1.83,0,0,0-1.62.9,3.53,3.53,0,0,0-.54,1.93,5.64,5.64,0,0,0,.81,3.11,15.75,15.75,0,0,0,2.69,2.87l3,2.66a19,19,0,0,1,4.18,4.85,11.93,11.93,0,0,1,1.48,6.08A9.21,9.21,0,0,1,195.38,33a8.47,8.47,0,0,1-3.33,3.28A10,10,0,0,1,187.06,37.46Z"/></g></g></svg>