<svg width="47" height="47" viewBox="0 0 47 47" fill="none" xmlns="http://www.w3.org/2000/svg">
<circle cx="23.7007" cy="23.4843" r="22.4844" stroke="#444444" stroke-width="1.49896"/>
<path fill-rule="evenodd" clip-rule="evenodd" d="M28.3168 19.4176C28.3168 19.4176 28.3168 19.2764 28.3168 19.4176C27.5975 18.7114 26.7345 18.4289 25.8714 18.5702C26.7345 18.4289 27.166 18.1464 27.3098 18.0052C27.3098 17.864 27.3098 17.7227 27.166 17.7227C26.7345 17.7227 26.3029 17.864 26.0152 18.0052C26.4468 17.7227 26.5906 17.5815 26.5906 17.4402C26.1591 17.4402 25.7275 17.7227 25.1521 18.1464C25.296 17.864 25.4398 17.7227 25.296 17.5815C25.0083 17.7227 24.8645 17.864 24.7206 18.1464C24.2891 18.5702 24.0014 18.8526 23.8575 19.2764C23.2821 20.265 22.8506 21.1125 22.5629 22.1011H22.4191C22.1314 21.6774 21.6998 21.2537 21.1244 20.9712C20.549 20.5475 19.8298 20.265 18.9667 19.8413C18.1036 19.4176 17.2406 18.9939 16.2336 18.7114C16.2336 19.7001 16.6652 20.5475 17.6721 21.1125C17.3844 21.1125 16.9529 21.1125 16.6652 21.2537C16.6652 22.1011 17.3844 22.8073 18.679 23.0898C18.2475 23.0898 17.816 23.2311 17.3844 23.5135C17.816 24.361 18.5352 24.6434 19.686 24.6434C19.5421 24.7847 19.2544 24.9259 19.2544 24.9259C19.1106 25.0672 18.9667 25.3496 19.1106 25.6321C19.3983 26.0558 19.686 26.1971 20.4052 26.1971C19.3983 27.1858 18.1036 27.7507 16.6652 27.6095C15.8021 27.6095 14.7952 27.1858 13.7882 26.3383C14.7952 27.7507 16.2336 28.8806 17.9598 29.5868C19.9737 30.1518 21.9875 30.293 23.8575 29.7281C25.7275 29.1631 27.4537 28.0332 28.7483 26.4796C29.3237 25.6321 29.7552 24.7847 29.8991 23.9372C30.906 23.9372 31.6253 23.6548 32.0568 23.0898C31.7691 23.2311 31.0499 23.2311 30.0429 22.9486C31.0499 22.8073 31.7691 22.5249 31.9129 21.9599C31.1937 22.2424 30.4745 22.2424 29.7552 21.9599C29.6114 20.9712 29.1799 20.1238 28.3168 19.4176Z" fill="#444444"/>
</svg>
