<svg width="33" height="33" viewBox="0 0 33 33" fill="none" xmlns="http://www.w3.org/2000/svg">
<path d="M16.8335 8.6048C19.0426 8.6048 20.8335 6.81394 20.8335 4.6048C20.8335 2.39566 19.0426 0.604797 16.8335 0.604797C14.6244 0.604797 12.8335 2.39566 12.8335 4.6048C12.8335 6.81394 14.6244 8.6048 16.8335 8.6048Z" fill="#5465DA"/>
<path d="M22.8254 19.4768L21.9174 12.4048C21.8154 11.3788 20.9594 10.6048 19.9294 10.6048H18.8334C18.5674 10.6048 18.3134 10.7108 18.1254 10.8968L16.8334 12.1888L15.5414 10.8968C15.3534 10.7108 15.0994 10.6048 14.8334 10.6048H13.7394C12.7074 10.6048 11.8514 11.3788 11.7514 12.3788L10.8414 19.4788C10.8054 19.7628 10.8934 20.0508 11.0834 20.2648C11.2734 20.4808 11.5454 20.6048 11.8334 20.6048H12.9134L13.7494 30.8048C13.8494 31.8288 14.7074 32.6048 15.7394 32.6048H17.9294C18.9614 32.6048 19.8174 31.8288 19.9214 30.7868L20.7554 20.6048H21.8334C22.1214 20.6048 22.3934 20.4808 22.5834 20.2648C22.7754 20.0508 22.8634 19.7628 22.8254 19.4768Z" fill="#5465DA"/>
<path d="M26.8335 8.6048C29.0426 8.6048 30.8335 6.81394 30.8335 4.6048C30.8335 2.39566 29.0426 0.604797 26.8335 0.604797C24.6244 0.604797 22.8335 2.39566 22.8335 4.6048C22.8335 6.81394 24.6244 8.6048 26.8335 8.6048Z" fill="#5465DA"/>
<path d="M6.8335 0.604797C4.6275 0.604797 2.8335 2.3988 2.8335 4.6048C2.8335 6.8108 4.6275 8.6048 6.8335 8.6048C9.0375 8.6048 10.8335 6.8108 10.8335 4.6048C10.8335 2.3988 9.0375 0.604797 6.8335 0.604797Z" fill="#5465DA"/>
<path d="M32.8254 19.4768L31.9174 12.4068C31.8154 11.3788 30.9614 10.6048 29.9294 10.6048H28.8334C28.5674 10.6048 28.3134 10.7108 28.1254 10.8968L26.8334 12.1888L25.5414 10.8968C25.3534 10.7108 25.0994 10.6048 24.8354 10.6048H23.7394C23.6154 10.6048 23.5034 10.6488 23.3854 10.6708C23.6434 11.1268 23.8454 11.6208 23.9054 12.1748L24.8114 19.2228C24.9234 20.0808 24.6554 20.9448 24.0794 21.5948C23.8074 21.9068 23.4594 22.1268 23.0874 22.2988L23.7514 28.8048C23.8534 29.8308 24.7094 30.6048 25.7414 30.6048H27.9314C28.9634 30.6048 29.8194 29.8288 29.9234 28.7868L30.7554 20.6048H31.8334C32.1214 20.6048 32.3934 20.4808 32.5834 20.2648C32.7754 20.0508 32.8634 19.7628 32.8254 19.4768Z" fill="#5465DA"/>
<path d="M9.58147 21.5848C9.01347 20.9428 8.74947 20.0808 8.85747 19.2268L9.76747 12.1248C9.81947 11.5928 10.0155 11.1128 10.2655 10.6688C10.1535 10.6488 10.0475 10.6048 9.92947 10.6048H8.83347C8.56747 10.6048 8.31347 10.7108 8.12547 10.8968L6.83347 12.1888L5.54147 10.8968C5.35347 10.7108 5.09947 10.6048 4.83547 10.6048H3.7394C2.7074 10.6048 1.8514 11.3788 1.7514 12.3788L0.841403 19.4788C0.805403 19.7628 0.893403 20.0508 1.0834 20.2648C1.2734 20.4808 1.5474 20.6048 1.8334 20.6048H2.9134L3.7494 28.8048C3.8494 29.8288 4.7074 30.6048 5.7394 30.6048H7.9294C8.9614 30.6048 9.8174 29.8288 9.9214 28.7868L10.5854 22.2968C10.2115 22.1228 9.86147 21.9008 9.58147 21.5848Z" fill="#5465DA"/>
</svg>
