<svg width="26" height="33" viewBox="0 0 26 33" fill="none" xmlns="http://www.w3.org/2000/svg">
<path d="M18.0624 13.28C20.184 11.3457 23.0532 8.72961 23.3147 2.4798H25.209V0.604797H0.833984V2.4798H2.7283C2.9898 8.72961 5.85892 11.3457 7.98055 13.28C9.40373 14.5775 10.209 15.3717 10.209 16.6048C10.209 17.8379 9.40373 18.632 7.98055 19.9296C5.85892 21.8639 2.9898 24.48 2.7283 30.7298H0.833984V32.6048H25.209V30.7298H23.3147C23.0532 24.48 20.184 21.8639 18.0624 19.9296C16.6392 18.632 15.834 17.8379 15.834 16.6048C15.834 15.3717 16.6392 14.5775 18.0624 13.28ZM12.084 23.6322C11.7944 23.6919 11.5084 23.7789 11.2292 23.8944L5.48686 26.2705C6.42461 23.8862 7.93498 22.5085 9.2438 21.3152C10.7044 19.9835 12.084 18.7257 12.084 16.6048V23.6322ZM16.7992 21.3152C18.108 22.5085 19.6183 23.8862 20.5561 26.2705L14.8138 23.8943C14.5346 23.7788 14.2485 23.6919 13.959 23.6321V16.6048C13.959 18.7257 15.3385 19.9835 16.7992 21.3152ZM5.45392 6.8548C5.00061 5.67361 4.68755 4.24742 4.60561 2.4798H21.4373C21.3554 4.24742 21.0424 5.67361 20.589 6.8548H5.45392Z" fill="#5465DA"/>
</svg>
