<svg width="47" height="47" viewBox="0 0 47 47" fill="none" xmlns="http://www.w3.org/2000/svg">
<circle cx="23.5926" cy="23.4843" r="22.4844" stroke="#444444" stroke-width="1.49896"/>
<path fill-rule="evenodd" clip-rule="evenodd" d="M30.5102 15.5058H16.6149C15.8054 15.5058 15.1309 16.1803 15.1309 16.9898V21.1213H20.7464C21.5895 20.5142 22.4833 19.9914 23.5625 19.9914C24.6081 19.9914 25.5524 20.5142 26.3787 21.1213H31.9942V16.9898C31.9942 16.1803 31.3197 15.5058 30.5102 15.5058ZM30.8636 19.4183C30.8636 19.7387 30.6106 20.0085 30.2902 20.0085H28.0811C27.7607 20.0085 27.4909 19.7387 27.4909 19.4183V17.2092C27.4909 16.8888 27.7607 16.6359 28.0811 16.6359H30.2902C30.6106 16.6359 30.8636 16.8888 30.8636 17.2092V19.4183ZM26.3777 24.4941C26.3777 22.9426 25.113 21.6948 23.5615 21.6948C22.0101 21.6948 20.7454 22.9426 20.7454 24.4941C20.7454 26.0455 22.0101 27.3102 23.5615 27.3102C25.113 27.3102 26.3777 26.0455 26.3777 24.4941ZM27.8617 23.3811C27.9629 23.7184 27.9966 24.0725 27.9966 24.4267C27.9966 26.8887 26.0067 28.8786 23.5616 28.8786C21.1164 28.8786 19.1265 26.8887 19.1265 24.4267C19.1265 24.0725 19.1602 23.7184 19.2614 23.3811H15.1299V30.8853C15.1299 31.6947 15.8044 32.3693 16.6139 32.3693H30.5092C31.3187 32.3693 31.9932 31.6947 31.9932 30.8853V23.3811H27.8617Z" fill="#444444"/>
</svg>
