<svg width="70" height="49" viewBox="0 0 70 49" fill="none" xmlns="http://www.w3.org/2000/svg">
<path d="M3.20658 0.977417H66.4277C68.0083 0.977417 69.3014 2.16893 69.3014 3.62522V43.3423C69.3014 44.7986 68.0083 45.9901 66.4277 45.9901H3.20658C1.62605 45.9901 0.332886 44.7986 0.332886 43.3423V3.62522C0.332886 2.16893 1.62605 0.977417 3.20658 0.977417Z" fill="#8A8C8C"/>
<path d="M43.0788 15.0438C48.8262 15.0438 53.4959 19.6154 53.4959 25.242C53.4959 30.8686 48.8262 35.4402 43.0788 35.4402C37.3314 35.4402 32.6617 30.8686 32.6617 25.242C32.6617 19.6154 37.3314 15.0438 43.0788 15.0438Z" fill="#C7C4BF"/>
<path d="M34.0983 19.9667H41.2826V21.3733H34.0983V19.9667Z" fill="#C7C4BF"/>
<path d="M26.5552 35.4402C20.8079 35.4402 16.1381 30.8686 16.1381 25.242C16.1381 19.6154 20.8079 15.0438 26.5552 15.0438C32.3026 15.0438 36.9724 19.6154 36.9724 25.242C36.9724 30.8686 32.3026 35.4402 26.5552 35.4402Z" fill="#FAF7F7"/>
<path fill-rule="evenodd" clip-rule="evenodd" d="M43.4377 19.9673H34.0982V21.3739H43.4377V19.9673ZM34.0982 28.4072V29.8138H43.4377V28.4072H34.0982ZM42.7193 24.1872H33.3798V22.7806H42.7193V24.1872ZM33.3798 27.0005H42.7193V25.5939H33.3798V27.0005Z" fill="#C7C4BF"/>
<path opacity="0.05" d="M3.20658 48.8034H4.49974L69.3014 5.05669V3.79071C69.3014 2.2434 68.0083 0.977417 66.4277 0.977417H3.20658C1.62605 0.977417 0.332886 2.2434 0.332886 3.79071V45.9901C0.332886 47.5374 1.62605 48.8034 3.20658 48.8034Z" fill="white"/>
</svg>
