<svg width="71" height="46" viewBox="0 0 71 46" fill="none" xmlns="http://www.w3.org/2000/svg">
<path d="M1.01567 12.7507H69.9842V33.6816H1.01567V12.7507Z" fill="#F9F9F9" stroke="#8A8C8C" stroke-width="0.749479"/>
<path d="M3.8894 0.976929H67.1106C68.6911 0.976929 69.9843 2.15429 69.9843 3.59329V12.7506H1.01571V3.59329C1.01571 2.15429 2.30887 0.976929 3.8894 0.976929Z" fill="#8A8C8C" stroke="#8A8C8C" stroke-width="0.749479"/>
<path d="M1.01567 33.6814H69.9842V42.8387C69.9842 44.2777 68.6911 45.455 67.1105 45.455H3.88936C2.30883 45.455 1.01567 44.2777 1.01567 42.8387V33.6814Z" fill="#8A8C8C" stroke="#8A8C8C" stroke-width="0.749479"/>
<g opacity="0.05">
<path d="M3.8894 45.3897C2.30887 45.3897 1.01571 44.2123 1.01571 42.7733V3.59329C1.01571 2.15429 2.30887 0.976929 3.8894 0.976929H67.1106C68.6911 0.976929 69.9843 2.15429 69.9843 3.59329" fill="white"/>
<path d="M3.8894 45.3897C2.30887 45.3897 1.01571 44.2123 1.01571 42.7733V3.59329C1.01571 2.15429 2.30887 0.976929 3.8894 0.976929H67.1106C68.6911 0.976929 69.9843 2.15429 69.9843 3.59329" stroke="#8A8C8C" stroke-width="0.749479"/>
</g>
<path d="M27.6691 28.7101L29.7525 17.656H33.0573L30.9738 28.7101H27.6691Z" fill="#8A8C8C" stroke="#8A8C8C" stroke-width="0.749479"/>
<path d="M42.9716 17.9833C42.325 17.787 41.3192 17.5254 40.026 17.5254C36.7213 17.5254 34.4223 19.0298 34.4223 21.1883C34.4223 22.7581 36.0747 23.6738 37.296 24.1971C38.5892 24.7204 39.0202 25.1128 39.0202 25.5707C39.0202 26.2902 38.0145 26.6827 37.0087 26.6827C35.7155 26.6827 34.9971 26.4864 33.9194 26.094L33.4884 25.8323L33.0573 28.3179C33.8476 28.6449 35.2844 28.9066 36.7213 28.9066C40.1697 28.9066 42.4687 27.4022 42.4687 25.1128C42.4687 23.8701 41.6066 22.8889 39.6668 22.104C38.5174 21.5808 37.7989 21.2537 37.7989 20.7304C37.7989 20.2726 38.3737 19.7493 39.6668 19.7493C40.7445 19.7493 41.5347 19.9455 42.1095 20.1418L42.3968 20.2726L42.9716 17.9833Z" fill="#8A8C8C"/>
<path d="M42.9716 17.9833C42.325 17.787 41.3192 17.5254 40.026 17.5254C36.7213 17.5254 34.4223 19.0298 34.4223 21.1883C34.4223 22.7581 36.0747 23.6738 37.296 24.1971C38.5892 24.7204 39.0202 25.1128 39.0202 25.5707C39.0202 26.2902 38.0145 26.6827 37.0087 26.6827C35.7155 26.6827 34.9971 26.4864 33.9194 26.094L33.4884 25.8323L33.0573 28.3179C33.8476 28.6449 35.2844 28.9066 36.7213 28.9066C40.1697 28.9066 42.4687 27.4022 42.4687 25.1128C42.4687 23.8701 41.6066 22.8889 39.6668 22.104C38.5174 21.5808 37.7989 21.2537 37.7989 20.7304C37.7989 20.2726 38.3737 19.7493 39.6668 19.7493C40.7445 19.7493 41.5347 19.9455 42.1095 20.1418L42.3968 20.2726L42.9716 17.9833" stroke="#8A8C8C" stroke-width="0.749479"/>
<path fill-rule="evenodd" clip-rule="evenodd" d="M48.8627 17.7214H51.449L54.179 28.7756H51.0898C51.0898 28.7756 50.7306 27.5328 50.6587 27.1403H46.42C46.2763 27.402 45.7016 28.7756 45.7016 28.7756H42.2532L47.1385 18.6372C47.4977 17.9177 48.0724 17.7214 48.8627 17.7214ZM48.6471 21.7115C48.6471 21.7115 47.6413 24.1317 47.3539 24.7857V24.8512H50.0839C49.9402 24.2625 49.2937 21.6461 49.2937 21.6461L49.0781 20.665C48.9344 21.0574 48.6471 21.7115 48.6471 21.7115Z" fill="#8A8C8C"/>
<path d="M51.449 17.7214L51.8128 17.6316L51.7424 17.3467H51.449V17.7214ZM54.179 28.7756V29.1503H54.6575L54.5428 28.6857L54.179 28.7756ZM51.0898 28.7756L50.7298 28.8796L50.808 29.1503H51.0898V28.7756ZM50.6587 27.1403L51.0273 27.0729L50.9711 26.7656H50.6587V27.1403ZM46.42 27.1403V26.7656H46.1983L46.0916 26.96L46.42 27.1403ZM45.7016 28.7756V29.1503H45.951L46.0473 28.9202L45.7016 28.7756ZM42.2532 28.7756L41.9156 28.6129L41.6566 29.1503H42.2532V28.7756ZM47.1385 18.6372L46.8031 18.4698L46.8009 18.4745L47.1385 18.6372ZM47.3539 24.7857L47.0108 24.635L46.9792 24.7071V24.7857H47.3539ZM48.6471 21.7115L48.3039 21.5608L48.301 21.5677L48.6471 21.7115ZM47.3539 24.8512H46.9792V25.2259H47.3539V24.8512ZM50.0839 24.8512V25.2259H50.5611L50.448 24.7623L50.0839 24.8512ZM49.2937 21.6461L48.9275 21.7265L48.9299 21.736L49.2937 21.6461ZM49.0781 20.665L49.4441 20.5846L49.1683 19.3288L48.7262 20.5361L49.0781 20.665ZM51.449 17.3467H48.8627V18.0962H51.449V17.3467ZM54.5428 28.6857L51.8128 17.6316L51.0852 17.8113L53.8152 28.8654L54.5428 28.6857ZM51.0898 29.1503H54.179V28.4008H51.0898V29.1503ZM50.2901 27.2078C50.3296 27.4235 50.4425 27.8498 50.5398 28.2044C50.5896 28.3855 50.637 28.5542 50.672 28.6775C50.6895 28.7392 50.7039 28.7896 50.714 28.8247C50.719 28.8422 50.7229 28.8559 50.7256 28.8652C50.727 28.8699 50.728 28.8734 50.7287 28.8759C50.729 28.8771 50.7293 28.878 50.7295 28.8786C50.7296 28.879 50.7297 28.8792 50.7297 28.8794C50.7297 28.8794 50.7297 28.8795 50.7298 28.8795C50.7298 28.8796 50.7298 28.8796 50.7298 28.8796C50.7298 28.8796 50.7298 28.8796 51.0898 28.7756C51.4498 28.6715 51.4498 28.6715 51.4498 28.6715C51.4498 28.6715 51.4498 28.6715 51.4498 28.6715C51.4498 28.6715 51.4497 28.6714 51.4497 28.6713C51.4497 28.6712 51.4496 28.671 51.4495 28.6707C51.4494 28.6701 51.4491 28.6693 51.4488 28.6681C51.4481 28.6658 51.4471 28.6624 51.4458 28.6578C51.4432 28.6488 51.4394 28.6354 51.4344 28.6181C51.4246 28.5837 51.4103 28.5339 51.393 28.473C51.3584 28.351 51.3116 28.1845 51.2626 28.0059C51.1624 27.641 51.0597 27.2496 51.0273 27.0729L50.2901 27.2078ZM46.42 27.5151H50.6587V26.7656H46.42V27.5151ZM45.7016 28.7756C46.0473 28.9202 46.0473 28.9202 46.0473 28.9202C46.0473 28.9202 46.0473 28.9202 46.0473 28.9202C46.0473 28.9201 46.0474 28.9201 46.0474 28.92C46.0475 28.9198 46.0476 28.9196 46.0477 28.9193C46.048 28.9186 46.0484 28.9177 46.0489 28.9164C46.05 28.9138 46.0516 28.91 46.0537 28.905C46.0579 28.8949 46.0641 28.8801 46.0721 28.8612C46.088 28.8233 46.1109 28.7689 46.1389 28.7027C46.1948 28.5703 46.2708 28.3912 46.3512 28.204C46.517 27.8184 46.6877 27.4315 46.7485 27.3207L46.0916 26.96C46.0087 27.1109 45.8202 27.5415 45.6627 27.9081C45.5814 28.0971 45.5048 28.2777 45.4485 28.411C45.4203 28.4777 45.3972 28.5326 45.3811 28.5709C45.3731 28.59 45.3668 28.605 45.3625 28.6152C45.3604 28.6203 45.3587 28.6242 45.3576 28.6269C45.3571 28.6282 45.3566 28.6292 45.3564 28.6299C45.3562 28.6302 45.3561 28.6305 45.356 28.6306C45.356 28.6307 45.356 28.6308 45.3559 28.6308C45.3559 28.6309 45.3559 28.6309 45.3559 28.6309C45.3559 28.6309 45.3559 28.6309 45.7016 28.7756ZM42.2532 29.1503H45.7016V28.4008H42.2532V29.1503ZM46.8009 18.4745L41.9156 28.6129L42.5908 28.9382L47.476 18.7998L46.8009 18.4745ZM48.8627 17.3467C48.4415 17.3467 48.0357 17.398 47.6757 17.5721C47.3054 17.7513 47.0154 18.0448 46.8032 18.4698L47.4737 18.8046C47.6208 18.5101 47.7977 18.3457 48.0021 18.2468C48.2169 18.143 48.4936 18.0962 48.8627 18.0962V17.3467ZM47.697 24.9365C47.8423 24.6057 48.1671 23.8336 48.454 23.148C48.5977 22.8044 48.7325 22.4812 48.8314 22.244C48.8808 22.1254 48.9212 22.0282 48.9493 21.9607C48.9633 21.927 48.9743 21.9006 48.9817 21.8827C48.9855 21.8738 48.9883 21.8669 48.9902 21.8623C48.9912 21.86 48.9919 21.8583 48.9924 21.8571C48.9926 21.8565 48.9928 21.8561 48.9929 21.8558C48.993 21.8556 48.993 21.8555 48.9931 21.8554C48.9931 21.8554 48.9931 21.8554 48.9931 21.8554C48.9931 21.8553 48.9931 21.8553 48.6471 21.7115C48.301 21.5677 48.301 21.5677 48.301 21.5677C48.301 21.5677 48.301 21.5678 48.301 21.5678C48.301 21.5679 48.3009 21.568 48.3009 21.5681C48.3007 21.5684 48.3005 21.5689 48.3003 21.5694C48.2998 21.5706 48.2991 21.5723 48.2981 21.5746C48.2962 21.5792 48.2934 21.586 48.2897 21.595C48.2823 21.6128 48.2713 21.6391 48.2573 21.6728C48.2293 21.7402 48.1889 21.8373 48.1395 21.9558C48.0408 22.1928 47.9061 22.5155 47.7626 22.8587C47.4747 23.5467 47.1529 24.3117 47.0108 24.635L47.697 24.9365ZM47.7287 24.8512V24.7857H46.9792V24.8512H47.7287ZM50.0839 24.4764H47.3539V25.2259H50.0839V24.4764ZM49.2937 21.6461C48.9299 21.736 48.9299 21.736 48.9299 21.736C48.9299 21.7361 48.9299 21.7361 48.9299 21.7361C48.9299 21.7362 48.9299 21.7363 48.93 21.7365C48.9301 21.7368 48.9302 21.7373 48.9303 21.7379C48.9306 21.7392 48.9311 21.741 48.9317 21.7435C48.9329 21.7485 48.9348 21.7559 48.9372 21.7655C48.9419 21.7848 48.9489 21.8132 48.9579 21.8496C48.9759 21.9222 49.0017 22.0267 49.0331 22.154C49.096 22.4084 49.1813 22.7539 49.2711 23.1177C49.4508 23.8456 49.6482 24.6463 49.7199 24.94L50.448 24.7623C50.376 24.4674 50.1783 23.6655 49.9987 22.9381C49.9089 22.5742 49.8236 22.2287 49.7607 21.9742C49.7293 21.847 49.7035 21.7425 49.6855 21.6698C49.6765 21.6334 49.6695 21.605 49.6647 21.5857C49.6624 21.5761 49.6605 21.5687 49.6593 21.5637C49.6587 21.5612 49.6582 21.5594 49.6579 21.5581C49.6578 21.5575 49.6576 21.557 49.6576 21.5567C49.6575 21.5565 49.6575 21.5564 49.6575 21.5563C49.6575 21.5563 49.6575 21.5563 49.6575 21.5562C49.6575 21.5562 49.6575 21.5562 49.2937 21.6461ZM48.7121 20.7454L48.9276 21.7265L49.6597 21.5657L49.4441 20.5846L48.7121 20.7454ZM48.6471 21.7115C48.9902 21.8622 48.9902 21.8622 48.9902 21.8622C48.9902 21.8622 48.9902 21.8622 48.9902 21.8622C48.9902 21.8622 48.9902 21.8621 48.9902 21.8621C48.9903 21.862 48.9903 21.8618 48.9904 21.8617C48.9906 21.8613 48.9908 21.8608 48.9911 21.8602C48.9917 21.8588 48.9925 21.8569 48.9936 21.8544C48.9958 21.8494 48.999 21.842 49.0032 21.8325C49.0114 21.8135 49.0234 21.7861 49.0381 21.752C49.0677 21.6838 49.1085 21.5888 49.1539 21.4812C49.244 21.2681 49.3548 20.9992 49.43 20.7938L48.7262 20.5361C48.6578 20.7231 48.5531 20.9776 48.4635 21.1896C48.4191 21.2947 48.3792 21.3877 48.3503 21.4544C48.3359 21.4877 48.3242 21.5144 48.3162 21.5328C48.3122 21.5419 48.3091 21.549 48.3071 21.5538C48.306 21.5561 48.3052 21.5579 48.3047 21.5591C48.3045 21.5597 48.3043 21.5601 48.3042 21.5604C48.3041 21.5605 48.304 21.5606 48.304 21.5607C48.304 21.5607 48.304 21.5608 48.304 21.5608C48.304 21.5608 48.304 21.5608 48.304 21.5608C48.304 21.5608 48.304 21.5608 48.6471 21.7115Z" fill="#8A8C8C"/>
<path d="M24.8673 17.7214L21.6344 25.2435L21.2752 23.7391C20.7004 21.973 18.7607 20.0761 16.6773 19.095L19.6946 28.7101H23.2149L28.4594 17.656H24.8673" fill="#8A8C8C"/>
<path d="M24.8673 17.7214L21.6344 25.2435L21.2752 23.7391C20.7004 21.973 18.7607 20.0761 16.6773 19.095L19.6946 28.7101H23.2149L28.4594 17.656H24.8673" stroke="#8A8C8C" stroke-width="0.749479"/>
<path d="M18.6169 17.6564H13.3006L13.2288 17.918C17.3956 18.8337 20.1256 21.0576 21.2751 23.674L20.1256 18.6375C19.9819 17.918 19.3353 17.7218 18.6169 17.6564Z" fill="#F9A51A"/>
<path d="M18.6169 17.6564H13.3006L13.2288 17.918C17.3956 18.8337 20.1256 21.0576 21.2751 23.674L20.1256 18.6375C19.9819 17.918 19.3353 17.7218 18.6169 17.6564" stroke="#8A8C8C" stroke-width="0.749479"/>
</svg>
